# xmcd CD database file
#
# Track frame offsets:
#	150
#	11050
#	33864
#	43913
#	59293
#	81327
#	91957
#	116890
#	147977
#	174976
#	190791
#	205378
#	232017
#	245249
#	275443
#	293857
#
# Disc length: 4288 seconds
#
# Revision: 0
# Processed by: cddbd v1.5.1PL2 Copyright (c) Steve Scherf et al.
# Submitted via: CDex 1.51
#
DISCID=f010be10
DTITLE=Pulse Therapy - ATTACK THE GAME MUSIC 6
DYEAR=2004
DGENRE=Game
TTITLE0=nursery kids - Pulse Therapy
TTITLE1=コギト・エラスムス氏に捧ぐ - baddy
TTITLE2=Romancia 〜AfternoonMode〜
TTITLE3=PSALM35:3 SANNA VOICE MIX - Ikuya
TTITLE4=evening grow - G2 (Wiz.&shun._)
TTITLE5=Sugoi Damede Iikagen - Fancy K.M
TTITLE6=time limits 72h - 0884
TTITLE7=SolvalouMIXED - NYOU.
TTITLE8=Life attacker - LZD
TTITLE9=BG-真空管半自動防空システムMIX- - GIL
TTITLE10=下忍くん、故郷に帰る - 0884
TTITLE11=自走式拉致洗脳電波放射装置 - DOVE-TERROLIST
TTITLE12=eV - dj TAKA-p
TTITLE13=blue sky ballon - System S.S.
TTITLE14=Empire Passage - Doctor B
TTITLE15=ボーナストラック
EXTD=YEAR: 2004
EXTT0=
EXTT1=
EXTT2=
EXTT3=
EXTT4=
EXTT5=
EXTT6=
EXTT7=
EXTT8=
EXTT9=
EXTT10=
EXTT11=
EXTT12=
EXTT13=
EXTT14=
EXTT15=
PLAYORDER=
